<svg width="24" height="24" viewBox="0 0 24 24" fill="none" xmlns="http://www.w3.org/2000/svg">
<g id="24 / Actions / Edit">
<path id="Union" fill-rule="evenodd" clip-rule="evenodd" d="M18.2407 5.87075L17.2857 4.82876C16.9165 4.42595 16.2924 4.39403 15.884 4.75706L14.3216 6.14611L16.6198 8.68317L18.1714 7.29062C18.5854 6.91901 18.6166 6.28091 18.2407 5.87075ZM5.5 13.989L13.2006 7.1428L15.5035 9.68509L7.90674 16.5032H5.5V13.989ZM19.3465 4.85727L18.3915 3.81528C17.4686 2.80826 15.9083 2.72844 14.8874 3.63604L4.33557 13.0171C4.12212 13.2069 4 13.4788 4 13.7644V17.0032C4 17.5555 4.44772 18.0032 5 18.0032H8.09822C8.34478 18.0032 8.58266 17.9121 8.76616 17.7474L19.1733 8.40694C20.2084 7.47791 20.2863 5.88266 19.3465 4.85727ZM20 19.4999H4V20.9999H20V19.4999Z" fill="#0B1F33"/>
</g>
</svg>
