<svg width="18" height="18" viewBox="0 0 18 18" fill="none" xmlns="http://www.w3.org/2000/svg">
<g id="import-export">
<path id="Vector" d="M6.4874 2.51264L4.3949 4.60514C4.1549 4.83764 4.3199 5.24264 4.6574 5.24264H5.9999V9.75014C5.9999 10.1626 6.3374 10.5001 6.7499 10.5001C7.1624 10.5001 7.4999 10.1626 7.4999 9.75014V5.24264H8.8424C9.1799 5.24264 9.3449 4.83764 9.1049 4.60514L7.0124 2.51264C6.8699 2.37014 6.6299 2.37014 6.4874 2.51264ZM11.9999 12.7576V8.25014C11.9999 7.83764 11.6624 7.50014 11.2499 7.50014C10.8374 7.50014 10.4999 7.83764 10.4999 8.25014V12.7576H9.1574C8.8199 12.7576 8.6549 13.1626 8.8949 13.3951L10.9874 15.4801C11.1374 15.6226 11.3699 15.6226 11.5199 15.4801L13.6124 13.3951C13.8524 13.1626 13.6799 12.7576 13.3499 12.7576H11.9999Z" fill="white"/>
</g>
</svg>
