<svg width="18" height="18" viewBox="0 0 18 18" fill="none" xmlns="http://www.w3.org/2000/svg">
<g id="view-quilt">
<path id="Vector" d="M8.25 13.5H10.5C10.9125 13.5 11.25 13.1625 11.25 12.75V9.75C11.25 9.3375 10.9125 9 10.5 9H8.25C7.8375 9 7.5 9.3375 7.5 9.75V12.75C7.5 13.1625 7.8375 13.5 8.25 13.5ZM3.75 13.5H6C6.4125 13.5 6.75 13.1625 6.75 12.75V4.5C6.75 4.0875 6.4125 3.75 6 3.75H3.75C3.3375 3.75 3 4.0875 3 4.5V12.75C3 13.1625 3.3375 13.5 3.75 13.5ZM12.75 13.5H15C15.4125 13.5 15.75 13.1625 15.75 12.75V9.75C15.75 9.3375 15.4125 9 15 9H12.75C12.3375 9 12 9.3375 12 9.75V12.75C12 13.1625 12.3375 13.5 12.75 13.5ZM7.5 4.5V7.5C7.5 7.9125 7.8375 8.25 8.25 8.25H15C15.4125 8.25 15.75 7.9125 15.75 7.5V4.5C15.75 4.0875 15.4125 3.75 15 3.75H8.25C7.8375 3.75 7.5 4.0875 7.5 4.5Z" fill="white"/>
</g>
</svg>
